<svg xmlns="http://www.w3.org/2000/svg" width="15.852" height="15.852" viewBox="0 0 15.852 15.852">
  <g id="copy" transform="translate(0.1 0.1)">
    <g id="그룹_1312" data-name="그룹 1312" transform="translate(0 2.795)">
      <g id="그룹_1311" data-name="그룹 1311">
        <path id="패스_4207" data-name="패스 4207" d="M11.18,85.333h-9.5A1.677,1.677,0,0,0,0,87.01v9.5A1.677,1.677,0,0,0,1.677,98.19h9.5a1.677,1.677,0,0,0,1.677-1.677v-9.5A1.677,1.677,0,0,0,11.18,85.333Zm.559,11.18a.559.559,0,0,1-.559.559h-9.5a.559.559,0,0,1-.559-.559v-9.5a.559.559,0,0,1,.559-.559h9.5a.559.559,0,0,1,.559.559Z" transform="translate(0 -85.333)" fill="#505050" stroke="#505050" stroke-width="0.2"/>
      </g>
    </g>
    <g id="그룹_1314" data-name="그룹 1314" transform="translate(2.236)">
      <g id="그룹_1313" data-name="그룹 1313">
        <path id="패스_4208" data-name="패스 4208" d="M80.006,0H69.944a1.677,1.677,0,0,0-1.677,1.677.559.559,0,1,0,1.118,0,.559.559,0,0,1,.559-.559H80.006a.559.559,0,0,1,.559.559V11.739a.559.559,0,0,1-.559.559.559.559,0,0,0,0,1.118,1.677,1.677,0,0,0,1.677-1.677V1.677A1.677,1.677,0,0,0,80.006,0Z" transform="translate(-68.267)" fill="#505050" stroke="#505050" stroke-width="0.2"/>
      </g>
    </g>
  </g>
</svg>
